<svg width="1000" height="256" viewBox="0 0 1000 256" fill="none" xmlns="http://www.w3.org/2000/svg">
<g clip-path="url(#clip0_421_26)">
<g clip-path="url(#clip1_421_26)">
<g clip-path="url(#clip2_421_26)">
<g clip-path="url(#clip3_421_26)">
<path d="M0.386963 255.225V0.108032H999.613V255.225H0.386963Z" fill="white"/>
<path d="M9.59863 246.011V9.3197H990.399V246.011H9.59863Z" fill="#CA3433"/>
<path d="M28.0247 227.588V27.7457H971.975V227.588H28.0247Z" fill="white"/>
<g clip-path="url(#clip4_421_26)">
<g clip-path="url(#clip5_421_26)">
<g clip-path="url(#clip6_421_26)">
<path d="M109.724 149.215L108.815 173.4C99.8439 174.491 92.0609 175.037 85.466 175.037C78.8469 175.037 73.6946 173.303 70.0092 169.836C66.2996 166.393 64.4448 160.428 64.4448 151.942V109.754H55.7162V87.2056H65.8996L67.5362 70.4759H94.9947V87.2056H111.179L109.906 109.754H94.8129V145.941C94.8129 148.487 96.0252 149.76 98.4498 149.76C98.6922 149.76 102.45 149.578 109.724 149.215ZM147.548 124.302V173.218H117.362V86.1146H143.911L145.729 91.3881H146.457C149.245 88.2361 152.058 86.1994 154.894 85.2781C157.755 84.381 162.398 83.9324 168.824 83.9324L167.551 113.028H159.186C154.458 113.028 151.33 113.755 149.803 115.21C148.299 116.664 147.548 119.695 147.548 124.302ZM239.925 108.845L239.016 146.487C239.016 148.79 239.586 150.33 240.725 151.106C241.889 151.906 243.865 152.306 246.653 152.306L243.926 174.309C236.894 174.794 233.015 175.037 232.287 175.037C223.316 175.037 217.619 171.945 215.194 165.763H214.285C209.799 171.945 202.889 175.037 193.555 175.037C186.378 175.037 180.886 172.733 177.079 168.127C173.273 163.52 171.369 157.216 171.369 149.215C171.369 139.153 174.485 132.182 180.716 128.303C186.948 124.423 196.804 121.877 210.284 120.665V116.301C210.284 112.906 208.587 111.209 205.193 111.209C199.349 111.209 190.257 112.967 177.916 116.483L173.37 89.9333C188.887 85.9327 201.798 83.9324 212.103 83.9324C222.407 83.9324 229.608 85.9327 233.706 89.9333C237.852 93.9339 239.925 100.238 239.925 108.845ZM204.829 153.761C209.314 153.761 211.557 151.397 211.557 146.669V137.758C207.072 138.365 203.883 139.31 201.992 140.595C200.101 141.856 199.155 144.002 199.155 147.033C199.155 151.518 201.047 153.761 204.829 153.761ZM298.624 86.1146H328.265L309.717 173.218H266.802L248.072 86.1146H280.076L287.896 141.941H290.26L298.624 86.1146ZM370.089 109.936C366.937 109.936 364.877 110.991 363.907 113.1C362.937 115.234 362.452 118.483 362.452 122.847H378.272V118.483C378.272 112.785 375.545 109.936 370.089 109.936ZM370.817 83.9324C383.303 83.9324 392.25 86.9268 397.657 92.9156C403.04 98.9286 405.731 107.512 405.731 118.665C405.731 120.12 405.307 126.666 404.458 138.304H362.997C362.997 147.396 367.18 151.942 375.545 151.942C379.545 151.942 387.365 150.548 399.003 147.76L401.549 170.309C391.365 173.461 381.182 175.037 370.999 175.037C358.512 175.037 348.935 170.939 342.267 162.744C335.6 154.573 332.266 143.456 332.266 129.394C332.266 99.0862 345.116 83.9324 370.817 83.9324ZM414.096 153.215V56.6557H444.1V143.578C444.1 145.638 444.549 147.093 445.446 147.942C446.367 148.79 447.98 149.215 450.283 149.215L447.919 175.037H437.917C429.916 175.037 423.94 173.364 419.988 170.018C416.06 166.696 414.096 161.095 414.096 153.215ZM525.348 87.0238V173.218H495.344V87.0238H525.348ZM497.708 80.1137C495.162 77.9316 493.889 74.4159 493.889 69.5667C493.889 64.7175 495.162 61.1412 497.708 58.8379C500.254 56.5345 504.436 55.3828 510.255 55.3828C516.074 55.3828 520.257 56.5345 522.803 58.8379C525.348 61.1412 526.621 64.6811 526.621 69.4576C526.621 74.2583 525.348 77.774 522.803 80.0046C520.257 82.2595 516.074 83.3869 510.255 83.3869C504.436 83.3869 500.254 82.2958 497.708 80.1137ZM566.445 92.4791H567.173C573.84 86.7813 581.175 83.9324 589.176 83.9324C597.177 83.9324 602.79 85.7751 606.015 89.4605C609.215 93.1701 610.815 98.7225 610.815 106.117V173.218H579.902V116.483C579.902 113.452 578.568 111.937 575.901 111.937C572.507 111.937 569.658 112.785 567.355 114.482V173.218H536.805V86.1146H564.627L566.445 92.4791ZM616.998 111.827C616.998 103.05 619.689 96.2009 625.072 91.279C630.479 86.3813 637.91 83.9324 647.366 83.9324C656.822 83.9324 666.399 85.1447 676.098 87.5693L673.006 112.846C660.641 110.057 652.337 108.663 648.094 108.663C645.548 108.663 644.275 109.694 644.275 111.755C644.275 113.088 645.669 114.301 648.457 115.392C658.156 118.907 665.454 122.908 670.351 127.393C675.273 131.879 677.734 138.607 677.734 147.578C677.734 156.549 675.431 163.362 670.824 168.017C666.217 172.697 659.15 175.037 649.621 175.037C640.117 175.037 630.637 173.824 621.181 171.4L623.181 146.851C635.304 150.124 643.147 151.761 646.712 151.761C650.3 151.761 652.094 150.912 652.094 149.215C652.094 147.517 650.761 146.184 648.094 145.214C637.304 141.092 629.424 136.692 624.454 132.012C619.483 127.357 616.998 120.629 616.998 111.827ZM714.612 87.0238V173.218H684.608V87.0238H714.612ZM686.972 80.1137C684.45 77.9316 683.19 74.4159 683.19 69.5667C683.19 64.7175 684.45 61.1412 686.972 58.8379C689.542 56.5345 693.737 55.3828 699.556 55.3828C705.35 55.3828 709.533 56.5345 712.103 58.8379C714.649 61.1412 715.922 64.6811 715.922 69.4576C715.922 74.2583 714.649 77.774 712.103 80.0046C709.533 82.2595 705.35 83.3869 699.556 83.3869C693.737 83.3869 689.542 82.2958 686.972 80.1137ZM752.436 181.219H771.166C773.348 181.219 774.439 180.25 774.439 178.31V177.582C774.439 175.764 773.348 174.855 771.166 174.855H752.436C750.496 174.855 749.527 175.825 749.527 177.764V178.492C749.527 180.31 750.496 181.219 752.436 181.219ZM759.71 83.9324H802.625V104.299H789.532V105.208C793.412 108.603 795.352 113.028 795.352 118.483C795.352 137.88 784.38 147.578 762.438 147.578H753.709C751.527 147.578 750.436 148.572 750.436 150.56C750.436 152.573 751.466 153.579 753.527 153.579H778.258C792.2 153.579 799.17 159.64 799.17 171.763C799.17 181.704 795.836 188.893 789.169 193.33C782.501 197.743 773.288 199.949 761.528 199.949C749.769 199.949 740.895 198.713 734.906 196.24C728.893 193.742 725.887 189.099 725.887 182.31C725.887 178.552 728.251 175.4 732.979 172.855V172.127C727.038 168.854 724.068 164.126 724.068 157.943C724.068 150.669 728.736 145.153 738.07 141.395C733.706 138.243 730.469 134.57 728.36 130.376C726.226 126.205 725.159 120.665 725.159 113.755C725.159 104.178 728.287 96.807 734.543 91.6427C740.774 86.5025 749.163 83.9324 759.71 83.9324ZM767.711 118.847C767.711 114.967 767.263 112.143 766.365 110.373C765.444 108.627 763.771 107.754 761.347 107.754C758.922 107.754 757.261 108.627 756.364 110.373C755.443 112.143 754.982 114.846 754.982 118.483C754.982 125.878 757.164 129.575 761.528 129.575C765.65 129.575 767.711 125.999 767.711 118.847ZM838.267 92.4791H838.994C845.662 86.7813 852.875 83.9324 860.634 83.9324C868.392 83.9324 873.884 85.7751 877.109 89.4605C880.309 93.1701 881.91 98.7225 881.91 106.117V173.218H850.996V116.483C850.996 113.452 849.662 111.937 846.995 111.937C843.601 111.937 840.752 112.785 838.449 114.482V173.218H807.899V56.6557H838.267V92.4791ZM942.828 149.215L941.918 173.4C932.947 174.491 925.152 175.037 918.533 175.037C911.938 175.037 906.786 173.303 903.076 169.836C899.391 166.393 897.548 160.428 897.548 151.942V109.754H888.82V87.2056H899.003L900.64 70.4759H928.098V87.2056H944.282L943.009 109.754H927.916V145.941C927.916 148.487 929.129 149.76 931.553 149.76C931.796 149.76 935.554 149.578 942.828 149.215Z" fill="#CA3433"/>
</g>
</g>
</g>
</g>
</g>
</g>
</g>
<defs>
<clipPath id="clip0_421_26">
<rect width="1000" height="255.333" fill="white"/>
</clipPath>
<clipPath id="clip1_421_26">
<rect width="999.225" height="255.116" fill="white" transform="translate(0.386963 0.108032)"/>
</clipPath>
<clipPath id="clip2_421_26">
<rect width="999.225" height="255.116" fill="white" transform="translate(0.386963 0.108032)"/>
</clipPath>
<clipPath id="clip3_421_26">
<rect width="999.225" height="255.116" fill="white" transform="translate(0.386963 0.108032)"/>
</clipPath>
<clipPath id="clip4_421_26">
<rect width="888.675" height="144.567" fill="white" transform="translate(55.6617 55.3828)"/>
</clipPath>
<clipPath id="clip5_421_26">
<rect width="888.675" height="144.567" fill="white" transform="translate(55.6617 55.3828)"/>
</clipPath>
<clipPath id="clip6_421_26">
<rect width="888.675" height="144.567" fill="white" transform="translate(55.6617 55.3828)"/>
</clipPath>
</defs>
</svg>
